<svg xmlns="http://www.w3.org/2000/svg" viewBox="0 0 280 100"><defs><style>.cls-1{fill:#45a3f7;}.cls-2{fill:#101042;}</style></defs><g id="Layer_2" data-name="Layer 2"><path class="cls-1" d="M0,27.09V20.18l13.51-8.72H58.25V27.09Z"/><path class="cls-2" d="M37.23,27.09V80.65H22.07V27.09Z"/><path class="cls-2" d="M95.81,66.92c-2.31,8.26-9.89,15.17-22,15.17C60.68,82.09,49,72.68,49,56.65c0-15.35,11.42-25.14,23.8-25.14,14.78,0,23.9,9.11,23.9,24.47a29.59,29.59,0,0,1-.29,4.51H63.18c.28,5.38,5.18,9.22,10.84,9.22,5.28,0,8.26-2.5,9.6-6.24ZM82.56,51.09C82.37,47.44,79.88,43,73,43c-6.15,0-9.22,4.52-9.51,8.07Z"/><path class="cls-2" d="M153.76,72.11c0,4.32.29,7.48.39,8.54h-14a34.09,34.09,0,0,1-.38-4.61c-2.21,3.27-7,5.67-12.77,5.67-13.43,0-23.61-10.37-23.61-25.06,0-14.2,9.6-24.86,23.13-24.86,8.16,0,11.71,3.08,12.87,4.9V11.16h14.39Zm-24.95-3.46c5.66,0,10.75-4,10.75-11.9s-5.09-11.81-10.75-11.81-10.75,3.84-10.75,11.81S123.14,68.65,128.81,68.65Z"/><path class="cls-2" d="M211.17,72.11c0,4.32.29,7.48.38,8.54h-14a32.47,32.47,0,0,1-.38-4.61c-2.21,3.27-7,5.67-12.77,5.67-13.44,0-23.61-10.37-23.61-25.06,0-14.2,9.6-24.86,23.13-24.86,8.16,0,11.71,3.08,12.86,4.9V11.16h14.4Zm-25-3.46c5.67,0,10.75-4,10.75-11.9s-5.08-11.81-10.75-11.81-10.75,3.84-10.75,11.81S180.55,68.65,186.21,68.65Z"/><path class="cls-2" d="M226.14,99,237,74.22,216.93,33h16.32l11.61,25.53L255.42,33h15.45L241.5,99Z"/><path class="cls-1" d="M271.91,65.4a8.12,8.12,0,0,1,8.09,8,8.06,8.06,0,1,1-16.11,0A8.06,8.06,0,0,1,271.91,65.4Z"/></g></svg>