<svg xmlns="http://www.w3.org/2000/svg" viewBox="0 0 280 100"><defs><style>.cls-1{fill:#45a3f7;}.cls-2{fill:#fff;}</style></defs><g id="Layer_2" data-name="Layer 2"><path class="cls-1" d="M17.32,30.54V24.49l11.82-7.64H68.3V30.54Z"/><path class="cls-2" d="M49.91,30.54V77.41H36.63V30.54Z"/><path class="cls-2" d="M101.17,65.4c-2,7.22-8.65,13.27-19.24,13.27-11.5,0-21.75-8.23-21.75-22.26,0-13.44,10-22,20.83-22,12.94,0,20.92,8,20.92,21.42a25.45,25.45,0,0,1-.26,4H72.61c.25,4.7,4.54,8.06,9.49,8.06,4.62,0,7.23-2.18,8.4-5.46ZM89.58,51.54c-.17-3.2-2.35-7.06-8.4-7.06a8,8,0,0,0-8.32,7.06Z"/><path class="cls-2" d="M151.89,69.93c0,3.78.25,6.55.34,7.48H140a29.7,29.7,0,0,1-.33-4c-1.94,2.85-6.14,5-11.18,5-11.76,0-20.66-9.07-20.66-21.92,0-12.43,8.4-21.76,20.24-21.76,7.14,0,10.25,2.69,11.26,4.29V16.59h12.6Zm-21.84-3c5,0,9.41-3.53,9.41-10.42S135,46.16,130.05,46.16s-9.41,3.36-9.41,10.33S125.09,66.91,130.05,66.91Z"/><path class="cls-2" d="M202.13,69.93c0,3.78.25,6.55.34,7.48H190.2a29.24,29.24,0,0,1-.34-4c-1.93,2.85-6.13,5-11.17,5-11.76,0-20.66-9.07-20.66-21.92,0-12.43,8.4-21.76,20.24-21.76,7.14,0,10.25,2.69,11.26,4.29V16.59h12.6Zm-21.84-3c5,0,9.41-3.53,9.41-10.42s-4.45-10.33-9.41-10.33-9.41,3.36-9.41,10.33S175.33,66.91,180.29,66.91Z"/><path class="cls-2" d="M215.23,93.45l9.5-21.67L207.17,35.66h14.28L231.61,58l9.24-22.34h13.53L228.67,93.45Z"/><path class="cls-1" d="M255.28,64.07a7.11,7.11,0,0,1,7.09,7,7.05,7.05,0,1,1-14.1,0A7,7,0,0,1,255.28,64.07Z"/></g></svg>